<?xml version="1.0" encoding="UTF-8" standalone="no"?>
<!-- Created with Inkscape (http://www.inkscape.org/) -->

<svg
   xmlns:dc="http://purl.org/dc/elements/1.1/"
   xmlns:cc="http://creativecommons.org/ns#"
   xmlns:rdf="http://www.w3.org/1999/02/22-rdf-syntax-ns#"
   xmlns:svg="http://www.w3.org/2000/svg"
   xmlns="http://www.w3.org/2000/svg"
   xmlns:sodipodi="http://sodipodi.sourceforge.net/DTD/sodipodi-0.dtd"
   xmlns:inkscape="http://www.inkscape.org/namespaces/inkscape"
   width="64px"
   height="64px"
   id="svg3810"
   version="1.1"
   inkscape:version="0.48.3.1 r9886"
   sodipodi:docname="nemo_bubble_left.svg"
   inkscape:export-filename="/home/patrick/workspace/TextFiction/art/nemo_bubble_right.png"
   inkscape:export-xdpi="90"
   inkscape:export-ydpi="90">
  <defs
     id="defs3812">
    <filter
       inkscape:collect="always"
       id="filter3765">
      <feGaussianBlur
         inkscape:collect="always"
         stdDeviation="0.64922711"
         id="feGaussianBlur3767" />
    </filter>
  </defs>
  <sodipodi:namedview
     id="base"
     pagecolor="#ffffff"
     bordercolor="#666666"
     borderopacity="1.0"
     inkscape:pageopacity="0.0"
     inkscape:pageshadow="2"
     inkscape:zoom="10.46875"
     inkscape:cx="11.844776"
     inkscape:cy="32"
     inkscape:current-layer="layer1"
     showgrid="true"
     inkscape:document-units="px"
     inkscape:grid-bbox="true"
     inkscape:window-width="1231"
     inkscape:window-height="1002"
     inkscape:window-x="49"
     inkscape:window-y="0"
     inkscape:window-maximized="1" />
  <metadata
     id="metadata3815">
    <rdf:RDF>
      <cc:Work
         rdf:about="">
        <dc:format>image/svg+xml</dc:format>
        <dc:type
           rdf:resource="http://purl.org/dc/dcmitype/StillImage" />
        <dc:title></dc:title>
      </cc:Work>
    </rdf:RDF>
  </metadata>
  <g
     id="layer1"
     inkscape:label="Layer 1"
     inkscape:groupmode="layer">
    <g
       id="g4300">
      <path
         transform="matrix(-1,0,0,1,61.294223,-6.803084)"
         style="opacity:0.8;fill:#060000;fill-opacity:1;stroke:#000000;stroke-width:2.62088776;stroke-linejoin:miter;stroke-miterlimit:4;stroke-opacity:1;stroke-dasharray:none;filter:url(#filter3765)"
         d="m 11.157488,19.43176 27.637004,0 c 3.198658,0 5.773749,2.575092 5.773749,5.773748 l 0,17.042179 8.19461,6.949143 -8.19461,-0.03989 0,3.685575 c 0,3.198656 -2.575091,5.773748 -5.773749,5.773748 l -27.637004,0 c -3.1986574,0 -5.7737489,-2.575092 -5.7737489,-5.773748 l 0,-27.637005 c 0,-3.198656 2.5750915,-5.773748 5.7737489,-5.773748 z"
         id="path2983"
         inkscape:connector-curvature="0"
         sodipodi:nodetypes="ssscccssssss" />
      <path
         sodipodi:nodetypes="ssscccssssss"
         inkscape:connector-curvature="0"
         id="rect4326"
         d="m 48.136735,10.628676 -27.637004,0 c -3.198658,0 -5.773749,2.575092 -5.773749,5.773748 l 0,17.042179 -8.1946104,6.949143 8.1946104,-0.03989 0,3.685575 c 0,3.198656 2.575091,5.773748 5.773749,5.773748 l 27.637004,0 c 3.198657,0 5.773749,-2.575092 5.773749,-5.773748 l 0,-27.637005 c 0,-3.198656 -2.575092,-5.773748 -5.773749,-5.773748 z"
         style="fill:#f3c6ff;fill-opacity:1;stroke:#e195ff;stroke-width:2.62088776000000001;stroke-linejoin:miter;stroke-miterlimit:4;stroke-opacity:1;stroke-dasharray:none" />
    </g>
  </g>
</svg>
