<?xml version="1.0" encoding="UTF-8" standalone="no"?>
<!DOCTYPE svg PUBLIC "-//W3C//DTD SVG 20010904//EN"
"http://www.w3.org/TR/2001/REC-SVG-20010904/DTD/svg10.dtd">
<!-- Created with Sodipodi ("http://www.sodipodi.com/") -->
<svg
   xmlns="http://www.w3.org/2000/svg"
   xmlns:sodipodi="http://sodipodi.sourceforge.net/DTD/sodipodi-0.dtd"
   xmlns:xlink="http://www.w3.org/1999/xlink"
   id="svg604"
   sodipodi:version="0.34"
   width="72pt"
   height="72pt"
   sodipodi:docbase="/home/natem/"
   sodipodi:docname="/home/natem/books.svg">
  <defs
     id="defs606">
    <linearGradient
       id="linearGradient612">
      <stop
         style="stop-color:#7fa8e3;stop-opacity:0.741176;"
         offset="0.000000"
         id="stop613" />
      <stop
         style="stop-color:#ffffff;stop-opacity:0;"
         offset="1.000000"
         id="stop614" />
    </linearGradient>
    <linearGradient
       xlink:href="#linearGradient612"
       id="linearGradient615"
       x1="50.6438866"
       y1="5.36792946"
       x2="35.7520943"
       y2="68.0443573"
       gradientUnits="userSpaceOnUse"
       spreadMethod="pad" />
    <defs
       id="defs654">
      <linearGradient
         id="linearGradient666">
        <stop
           style="stop-color:#a6d7ff;stop-opacity:1;"
           offset="0.000000"
           id="stop667" />
        <stop
           style="stop-color:#ffffff;stop-opacity:0.396078;"
           offset="1.000000"
           id="stop668" />
      </linearGradient>
      <linearGradient
         id="linearGradient660">
        <stop
           style="stop-color:#3882d2;stop-opacity:1;"
           offset="0.000000"
           id="stop661" />
        <stop
           style="stop-color:#ffffff;stop-opacity:1;"
           offset="1.000000"
           id="stop662" />
      </linearGradient>
      <linearGradient
         xlink:href="#linearGradient660"
         id="linearGradient663"
         x1="24.8720913"
         y1="97.8506012"
         x2="54.9295425"
         y2="95.5566864"
         gradientUnits="userSpaceOnUse"
         gradientTransform="scale(1.203807,0.830698)"
         spreadMethod="pad" />
      <linearGradient
         xlink:href="#linearGradient666"
         id="linearGradient665"
         x1="77.3604736"
         y1="65.4081421"
         x2="55.6024742"
         y2="83.4317398"
         gradientUnits="userSpaceOnUse"
         gradientTransform="scale(1.203807,0.830698)"
         spreadMethod="pad" />
    </defs>
    <sodipodi:namedview
       id="namedview776" />
  </defs>
  <sodipodi:namedview
     id="base" />
  <path
     style="font-size:12;fill:#000000;fill-rule:evenodd;stroke-width:1pt;fill-opacity:0.178571;"
     d="M 11.03113 23.21001 C 8.721822 23.03242 7.078658 25.51933 7.034249 26.5408 C 5.169043 31.02616 5.169043 34.97867 6.234873 39.19756 C 7.345118 42.39507 7.789215 44.12706 10.49821 43.19447 C 6.812202 48.16836 7.522758 52.34286 9.698833 57.31676 L 43.53904 82.36383 L 89.10341 62.37945 L 81.37615 57.05029 L 80.97649 53.58631 L 85.77272 51.58786 L 79.77744 47.72422 L 85.1066 45.85905 L 77.77898 40.92946 L 77.37932 31.4703 C 76.44665 30.67089 47.80242 14.28369 45.53749 12.68489 C 43.0061 13.61757 12.36341 22.81035 11.03113 23.21001 z "
     id="path819"
     sodipodi:nodetypes="cccccccccccccccc" />
  <path
     style="font-size:12;fill:#00043b;fill-rule:evenodd;stroke-width:1pt;"
     d="M 7.131131 22.31001 C 4.821822 22.13243 3.178658 24.61933 3.134249 25.6408 C 1.269043 30.12616 1.269043 34.07868 2.334873 38.29758 C 3.445118 41.49508 3.889215 43.22707 6.598216 42.29448 C 2.912202 47.26838 3.622758 51.44287 5.798833 56.41676 L 39.63904 81.46383 L 85.20342 61.47945 L 77.47615 56.15031 L 77.07649 52.68632 L 81.87271 50.68787 L 75.87743 46.82424 L 81.20659 44.95906 L 73.87898 40.02947 L 73.47933 30.5703 C 72.54664 29.7709 43.90241 13.38369 41.6375 11.7849 C 39.10611 12.71757 8.46342 21.91036 7.131131 22.31001 z "
     id="path690"
     sodipodi:nodetypes="cccccccccccccccc" />
  <path
     style="font-size:12;fill:#00660d;fill-rule:evenodd;stroke-width:1pt;"
     d="M 39.19137 77.27474 L 74.28037 60.3036 L 69.00562 56.40478 L 78.63781 60.99165 L 39.19137 77.27474 z "
     id="path657"
     sodipodi:nodetypes="ccccc" />
  <path
     style="font-size:12;fill:url(#linearGradient663);fill-rule:evenodd;stroke-width:1pt;"
     d="M 37.81536 62.36765 L 35.29262 73.14665 L 39.42079 76.81605 L 74.50972 60.7623 L 73.13372 49.75396 L 37.81536 62.36765 z "
     id="path659" />
  <path
     style="font-size:12;fill:url(#linearGradient665);fill-rule:evenodd;stroke-width:1pt;"
     d="M 37.81536 62.36765 L 35.29262 73.14665 L 39.42079 76.81605 L 74.50972 60.7623 L 73.13372 49.75396 L 37.81536 62.36765 z "
     id="path664" />
  <path
     style="font-size:12;fill:#009414;fill-rule:evenodd;stroke-width:1pt;"
     d="M 9.606581 42.18574 L 41.02615 65.11974 L 75.19776 49.9833 L 44.46627 31.63608 L 9.606581 42.18574 z "
     id="path655" />
  <path
     style="font-size:12;fill:#00660d;fill-rule:evenodd;stroke-width:1pt;"
     d="M 9.835921 42.18574 C 7.007396 47.30764 6.242931 51.28288 9.606581 55.48747 L 39.87941 77.73343 C 37.96829 73.68177 37.66244 69.6301 41.02615 64.89039 L 9.835921 42.18574 z "
     id="path656"
     sodipodi:nodetypes="ccccc" />
  <path
     style="font-size:12;fill:#a55800;fill-rule:evenodd;stroke-width:1pt;"
     d="M 35.99387 60.48788 L 71.08287 43.51674 L 65.80812 39.61792 L 75.44031 44.20478 L 35.99387 60.48788 z "
     id="path680"
     sodipodi:nodetypes="ccccc" />
  <path
     style="font-size:12;fill:url(#linearGradient663);fill-rule:evenodd;stroke-width:1pt;"
     d="M 34.61786 45.58079 L 32.09512 56.35978 L 36.22329 60.02918 L 71.31222 43.97543 L 69.93622 32.96709 L 34.61786 45.58079 z "
     id="path681" />
  <path
     style="font-size:12;fill:url(#linearGradient665);fill-rule:evenodd;stroke-width:1pt;"
     d="M 34.61786 45.58079 L 32.09512 56.35978 L 36.22329 60.02918 L 71.31222 43.97543 L 69.93622 32.96709 L 34.61786 45.58079 z "
     id="path682" />
  <path
     style="font-size:12;fill:#ff8900;fill-rule:evenodd;stroke-width:1pt;"
     d="M 6.409083 25.39887 L 37.82865 48.33288 L 72.00027 33.19643 L 41.26877 14.84922 L 6.409083 25.39887 z "
     id="path683" />
  <path
     style="font-size:12;fill:#a45800;fill-rule:evenodd;stroke-width:1pt;"
     d="M 6.638423 25.39887 C 3.809897 30.52077 3.045432 34.49602 6.409083 38.70061 L 36.68191 60.94657 C 34.7708 56.8949 34.46494 52.84324 37.82865 48.10353 L 6.638423 25.39887 z "
     id="path684"
     sodipodi:nodetypes="ccccc" />
  <path
     style="font-size:12;fill:none;fill-rule:evenodd;stroke:#ababab;stroke-width:0.902359;"
     d="M 35.9086 51.88693 L 61.48868 40.69568 "
     id="path685" />
  <path
     style="font-size:12;fill:none;fill-rule:evenodd;stroke:#afafaf;stroke-width:0.902359;"
     d="M 35.64222 55.3509 L 60.68928 44.69259 "
     id="path686" />
  <path
     style="font-size:12;fill:none;fill-rule:evenodd;stroke:#bfbfbf;stroke-width:0.902359;"
     d="M 39.37258 69.20672 L 64.6861 57.48255 "
     id="path687" />
  <path
     style="font-size:12;fill:none;fill-rule:evenodd;stroke:#bdbdbd;stroke-width:0.902359;stroke-opacity:0.607143;"
     d="M 39.10611 73.20364 L 62.82092 62.54532 "
     id="path688" />
  <path
     style="font-size:12;fill:#bd0000;fill-rule:evenodd;stroke-width:1pt;"
     d="M 39.9055 50.28822 L 40.70491 60.14712 L 43.10302 55.3509 L 46.30053 59.34782 L 44.96829 48.15657 L 39.9055 50.28822 z "
     id="path689" />
</svg>
